<svg width="19" height="18" fill="none" xmlns="http://www.w3.org/2000/svg">
  <g clip-path="url(#a)">
    <path d="M18.106 9a9 9 0 1 1-18 0 9 9 0 0 1 18 0ZM9.43 6.644c-.875.365-2.625 1.119-5.249 2.261-.425.17-.649.336-.67.498-.033.273.31.381.777.528l.197.062c.459.15 1.078.324 1.398.331.293.007.618-.112.977-.36 2.451-1.655 3.717-2.49 3.795-2.509.057-.013.135-.029.187.018.053.046.047.135.042.159-.034.145-1.38 1.396-2.077 2.044-.217.203-.371.345-.403.378-.069.071-.14.14-.211.21-.428.411-.747.72.017 1.223.368.243.662.443.956.643.32.218.639.435 1.053.707.105.068.206.141.304.21.372.266.708.505 1.121.466.241-.022.49-.247.616-.922.298-1.594.884-5.047 1.019-6.47a1.598 1.598 0 0 0-.015-.354.38.38 0 0 0-.128-.244.592.592 0 0 0-.349-.105c-.337.006-.858.187-3.357 1.226Z" fill="#323232"/>
  </g>
  <defs>
    <clipPath id="a">
      <path fill="#fff" transform="translate(.106)" d="M0 0h18v18H0z"/>
    </clipPath>
  </defs>
</svg>
