<svg width="19" height="18" fill="none" xmlns="http://www.w3.org/2000/svg">
  <g clip-path="url(#a)">
    <path d="M11.87 0H6.343C1.302 0 .106 1.195.106 6.237v5.526C.106 16.805 1.302 18 6.344 18h5.525c5.042 0 6.237-1.195 6.237-6.237V6.237C18.106 1.195 16.9 0 11.87 0Zm2.768 12.84H13.33c-.495 0-.647-.392-1.538-1.294-.773-.75-1.116-.85-1.306-.85-.27 0-.346.076-.346.446v1.18c0 .317-.1.507-.938.507-1.386 0-2.924-.838-4.002-2.4C3.575 8.142 3.13 6.428 3.13 6.074c0-.19.076-.369.442-.369h1.31c.33 0 .457.153.585.507.648 1.87 1.726 3.506 2.171 3.506.164 0 .24-.075.24-.495v-1.93c-.05-.89-.518-.967-.518-1.283 0-.152.126-.305.328-.305h2.059c.278 0 .38.153.38.48V8.79c0 .281.127.38.203.38.164 0 .304-.099.609-.404.94-1.054 1.614-2.68 1.614-2.68.088-.191.24-.37.571-.37h1.31c.393 0 .48.202.393.484-.165.761-1.767 3.023-1.767 3.023-.138.228-.19.328 0 .583.14.19.598.586.902.94.56.636.99 1.169 1.105 1.538.129.366-.062.557-.431.557h.002Z" fill="#323232"/>
  </g>
  <defs>
    <clipPath id="a">
      <path fill="#fff" transform="translate(.106)" d="M0 0h18v18H0z"/>
    </clipPath>
  </defs>
</svg>
