<svg width="294" height="30" fill="none" xmlns="http://www.w3.org/2000/svg">
  <path d="M53.698 23.5c0-.204 0-.459-.23-.459h-1.353c-.153 0-.23-.076-.23-.332V7.035c0-.255.077-.332.23-.332h1.353c.23 0 .23-.23.23-.434s0-.46-.23-.46H35.675c-.23 0-.23.256-.23.46 0 .204 0 .434.23.434h1.353c.153 0 .23.077.23.332V22.71c0 .256-.077.332-.23.332h-1.353c-.23 0-.23.255-.23.46 0 .204 0 .433.23.433h6.076c.23 0 .23-.23.23-.433 0-.205 0-.46-.23-.46h-1.353c-.153 0-.23-.076-.23-.332V6.96h8.807v15.75c0 .256-.077.332-.23.332h-1.353c-.23 0-.23.255-.23.46 0 .204 0 .433.23.433h6.076c.23 0 .23-.23.23-.433ZM64.358 11.477c0 1.43-.612 4.544-3.574 4.544h-1.046V6.933h1.046c2.962 0 3.574 3.114 3.574 4.544Zm3.217 0c0-4.059-2.834-5.667-6.535-5.667h-5.795c-.23 0-.23.255-.23.46 0 .203 0 .433.23.433h1.353c.153 0 .23.077.23.332V22.71c0 .256-.077.332-.23.332h-1.353c-.23 0-.23.255-.23.46 0 .204 0 .433.23.433h6.075c.23 0 .23-.23.23-.433 0-.205 0-.46-.23-.46h-1.353c-.153 0-.23-.076-.23-.332v-5.565h1.303c3.701 0 6.535-1.608 6.535-5.667ZM85.053 14.847c0 4.467-2.323 8.066-6.177 8.066-3.88 0-6.127-3.599-6.127-8.066 0-4.468 2.246-8.093 6.127-8.093 3.854 0 6.177 3.625 6.177 8.093Zm3.217.025a9.364 9.364 0 0 0-9.394-9.369c-5.183 0-9.344 4.213-9.344 9.37a9.32 9.32 0 0 0 9.344 9.368c5.233 0 9.394-4.161 9.394-9.369ZM118.23 22.454c0-.28-.205-.383-.434-.383-.256 0-1.047.434-1.558.434-2.323 0-3.497-1.838-4.595-4.033-1.148-2.298-2.603-5.336-6.305-5.948.434-2.63 2.272-5.719 4.187-5.719-.077.23-.128.434-.128.613 0 .893.587 1.302 1.455 1.302 1.021 0 1.481-.842 1.481-1.48 0-1.609-1.455-1.737-2.17-1.737-3.676 0-5.489 3.88-6.178 6.842h-.102v-5.31c0-.179.051-.332.281-.332h1.302c.229 0 .229-.23.229-.434s0-.46-.229-.46H99.39c-.23 0-.23.256-.23.46 0 .204 0 .434.23.434h1.353c.153 0 .23.077.23.332v5.31h-.102c-.69-2.961-2.502-6.842-6.178-6.842-.715 0-2.17.128-2.17 1.736 0 .639.46 1.48 1.48 1.48.869 0 1.456-.408 1.456-1.301 0-.179-.051-.383-.128-.613 1.915 0 3.753 3.09 4.187 5.719-3.702.612-5.157 3.65-6.306 5.948-1.097 2.195-2.272 4.033-4.595 4.033-.51 0-1.302-.434-1.557-.434-.23 0-.434.102-.434.383 0 .842 1.94 1.812 3.37 1.812 3.497 0 4.493-1.378 6.075-4.39 1.43-2.732 2.502-5.617 4.902-5.617v8.45c0 .256-.077.332-.23.332H99.39c-.23 0-.23.255-.23.46 0 .204 0 .433.23.433h6.076c.229 0 .229-.23.229-.433 0-.205 0-.46-.229-.46h-1.353c-.153 0-.23-.076-.23-.332v-8.45c2.4 0 3.472 2.885 4.901 5.617 1.583 3.012 2.579 4.39 6.076 4.39 1.429 0 3.37-.97 3.37-1.812ZM137.784 23.5c0-.204 0-.459-.23-.459h-1.353c-.153 0-.229-.076-.229-.332V7.035c0-.255.076-.332.229-.332h1.353c.23 0 .23-.23.23-.434s0-.46-.23-.46h-6.075c-.23 0-.23.256-.23.46 0 .204 0 .434.23.434h1.353c.153 0 .23.077.23.332v.51l-9.829 12.51V7.034c0-.255.077-.332.23-.332h1.327c.23 0 .23-.23.23-.434s0-.46-.23-.46h-6.05c-.229 0-.229.256-.229.46 0 .204 0 .434.229.434h1.353c.154 0 .23.077.23.332V22.71c0 .256-.076.332-.23.332h-1.353c-.229 0-.229.255-.229.46 0 .204 0 .433.229.433h6.076c.23 0 .23-.23.23-.433 0-.205 0-.46-.23-.46h-1.353c-.153 0-.23-.076-.23-.332v-.46l9.829-12.508v12.968c0 .256-.077.332-.23.332h-1.353c-.23 0-.23.255-.23.46 0 .204 0 .433.23.433h6.075c.23 0 .23-.23.23-.433ZM138.643 8.414a.731.731 0 0 0-.077.28c0 .23.23.256.562.256.332 0 .485-.102.562-.179l1.199-1.149c.434-.434 1.022-.689 1.813-.689h2.936v15.776c0 .23-.077.306-.23.306h-1.353c-.23 0-.23.23-.23.434 0 .205 0 .46.23.485h6.076c.229-.025.229-.28.229-.485 0-.204 0-.434-.229-.434h-1.353c-.154 0-.23-.076-.23-.306V6.933h2.935c.792 0 1.379.255 1.813.69l1.2 1.148c.076.077.23.179.561.179.332 0 .562-.026.562-.256a.731.731 0 0 0-.077-.28L154.24 5.81h-14.295l-1.302 2.604ZM171.783 14.847c0 4.467-2.323 8.066-6.177 8.066-3.881 0-6.127-3.599-6.127-8.066 0-4.468 2.246-8.093 6.127-8.093 3.854 0 6.177 3.625 6.177 8.093Zm3.217.025a9.364 9.364 0 0 0-9.394-9.369c-5.183 0-9.344 4.213-9.344 9.37a9.32 9.32 0 0 0 9.344 9.368c5.233 0 9.394-4.161 9.394-9.369Z" fill="#323232"/>
  <circle cx="14.359" cy="15" r="14.359" fill="#E96A41"/>
  <path fill-rule="evenodd" clip-rule="evenodd" d="M15.458 8.618H9.71L5.426 21.382h5.747l4.285-12.764Zm7.836 0h-5.748l-4.284 12.764h5.747l4.285-12.764Z" fill="#fff"/>
  <g clip-path="url(#a)" fill-rule="evenodd" clip-rule="evenodd">
    <path d="M230.091 3.938h-1.911v1.131h1.858v.701h-1.858v1.617h1.911v.7h-2.627V3.21h2.627v.728ZM232.055 7.387h.452c.796 0 .955-.404.955-.728 0-.35-.159-.727-.929-.727h-.478v1.455Zm0-2.075h.239c.16 0 .77 0 .77-.728 0-.593-.478-.646-.77-.646h-.239v1.374Zm0-2.102c.611 0 .876.08 1.142.27.212.134.557.458.557 1.104 0 .243-.053.593-.398.89.531.161.823.62.823 1.132 0 .215-.027.754-.478 1.131-.398.324-.796.35-1.274.35h-1.088V3.21h.716ZM235.824 5.42h.345c.611 0 .929-.297.929-.755 0-.27-.106-.754-.955-.754h-.319V5.42Zm.319-2.21c.318 0 .717.054 1.062.27.398.269.583.754.583 1.185 0 .27-.053.728-.451 1.051-.398.35-.823.377-1.168.377h-.345v1.995h-.716V3.21h1.035ZM242.698 5.662c0-1.078-.716-1.86-1.751-1.86s-1.752.782-1.752 1.86.717 1.833 1.752 1.833c1.035 0 1.751-.755 1.751-1.833Zm.744 0c0 1.428-1.062 2.506-2.495 2.506s-2.495-1.078-2.495-2.506c0-1.428 1.062-2.533 2.495-2.533s2.495 1.105 2.495 2.533ZM247.874 3.21v4.878h-.743v-4.15h-2.043v4.15h-.743V3.21h3.529ZM251.935 3.938h-1.911v1.131h1.857v.701h-1.857v1.617h1.911v.7h-2.628V3.21h2.628v.728ZM256.394 4.8l-3.211 3.503V3.21h.716v3.287l3.238-3.476v5.066h-.743V4.8ZM262.1 4.342c-.531-.485-1.009-.54-1.274-.54-1.062 0-1.752.782-1.752 1.86 0 1.024.744 1.833 1.752 1.833.584 0 1.009-.297 1.274-.566v.889c-.451.296-.982.35-1.3.35-.876 0-1.407-.404-1.699-.646-.557-.54-.743-1.16-.743-1.86 0-.89.345-1.509.743-1.886.504-.485 1.062-.647 1.725-.647.451 0 .876.08 1.274.35v.863ZM264.039 5.15l1.857-1.94h.956l-2.15 2.21 2.176 2.668h-.982l-1.725-2.156-.132.135v2.02h-.744V3.21h.744v1.94ZM271.018 4.8l-3.211 3.503V3.21h.717v3.287l3.237-3.476v5.066h-.743V4.8ZM276.274 4.8l-3.212 3.503V3.21h.717v3.287l3.211-3.476v5.066h-.716V4.8ZM227.809 13.37l1.247 2.506 1.115-2.506h.743l-2.15 4.85h-.769l.663-1.455-1.725-3.395h.876ZM232.268 15.256h2.07V13.37h.716v4.85h-.716v-2.263h-2.07v2.263h-.744v-4.85h.744v1.886ZM239.726 14.932l-3.238 3.504v-5.067h.743v3.288l3.212-3.503v5.066h-.717v-3.288ZM242.46 17.52h.451c.823 0 .955-.431.955-.728 0-.35-.159-.728-.929-.728h-.477v1.456Zm0-2.075h.239c.185 0 .769 0 .769-.701 0-.62-.451-.7-.743-.7h-.265v1.4Zm0-2.075c.61 0 .902.054 1.167.242.213.162.531.458.531 1.105 0 .243-.053.62-.398.89.557.161.823.62.823 1.104 0 .243 0 .782-.478 1.16-.398.323-.769.35-1.274.35h-1.088V13.37h.717ZM248.298 14.043h-1.91v1.16h1.857v.7h-1.857v1.617h1.91v.7h-2.653v-4.85h2.653v.673ZM250.263 15.553h.319c.637 0 .928-.324.928-.755 0-.27-.106-.755-.928-.755h-.319v1.51Zm.319-2.183c.292 0 .716 0 1.061.242.398.27.584.755.584 1.186 0 .296-.08.727-.478 1.078-.371.323-.796.35-1.167.35h-.319v1.994h-.743v-4.85h1.062ZM256.66 14.501c-.531-.485-1.009-.539-1.301-.539-1.035 0-1.725.782-1.725 1.833 0 1.024.717 1.833 1.725 1.833.584 0 1.035-.297 1.301-.567v.89c-.478.296-.982.35-1.301.35-.876 0-1.433-.404-1.698-.673-.558-.513-.77-1.132-.77-1.833 0-.89.372-1.51.77-1.886.504-.486 1.061-.647 1.725-.647.424 0 .849.08 1.274.35v.89ZM260.8 14.932l-3.238 3.504v-5.067h.743v3.288l3.211-3.503v5.066h-.716v-3.288ZM264.277 14.043v4.177h-.717v-4.177h-1.088v-.673h2.919v.673h-1.114ZM268.948 14.043h-1.885v1.16h1.832v.7h-1.832v1.617h1.885v.7h-2.628v-4.85h2.628v.673ZM271.523 14.043v4.177h-.743v-4.177h-1.089v-.673h2.92v.673h-1.088ZM228.18 27.653h.452c.796 0 .955-.432.955-.728 0-.35-.186-.728-.929-.728h-.478v1.456Zm0-2.075h.239c.16 0 .77 0 .77-.701 0-.62-.478-.7-.743-.7h-.266v1.4Zm0-2.076c.611 0 .876.054 1.142.243.212.162.557.458.557 1.105 0 .242-.053.593-.398.89.531.16.823.619.823 1.104 0 .243-.027.782-.478 1.159-.398.323-.796.35-1.274.35h-1.088v-4.85h.716ZM236.01 24.634c-.53-.485-1.035-.539-1.3-.539-1.035 0-1.752.782-1.752 1.833 0 1.05.743 1.832 1.752 1.832.584 0 1.035-.296 1.3-.566v.89c-.477.27-.982.35-1.3.35-.876 0-1.433-.377-1.699-.674-.557-.512-.769-1.132-.769-1.832 0-.89.371-1.51.769-1.887.478-.485 1.062-.646 1.725-.646.452 0 .85.08 1.274.35v.89ZM239.434 26.467l-.717-1.644-.743 1.644h1.46Zm.291.7h-2.043l-.531 1.186h-.796l2.389-5.147 2.282 5.147h-.796l-.505-1.185ZM242.354 25.389h2.043v-1.887h.744v4.851h-.744V26.09h-2.043v2.264h-.743v-4.85h.743v1.886ZM247.29 25.416l1.858-1.914h.955l-2.149 2.183 2.176 2.668h-.982l-1.698-2.156-.16.135v2.021h-.716v-4.85h.716v1.913ZM252.386 24.176v4.177h-.743v-4.177h-1.088v-.674h2.92v.674h-1.089ZM259.765 23.502v4.851h-.744v-4.177h-2.07v4.177h-.716v-4.85h3.53ZM263.826 24.176h-1.911v1.186h1.831v.674h-1.831v1.617h1.911v.7h-2.654v-4.85h2.654v.673ZM266.373 24.176v4.177h-.716v-4.177h-1.115v-.674h2.946v.674h-1.115ZM271.045 24.176h-1.911v1.186h1.858v.674h-1.858v1.617h1.911v.7h-2.628v-4.85h2.628v.673ZM273.009 25.685h.345c.637 0 .929-.323.929-.754 0-.27-.106-.755-.929-.755h-.345v1.51Zm.345-2.183c.292 0 .69 0 1.035.243.398.27.61.728.61 1.186 0 .296-.079.727-.477 1.078-.372.323-.823.377-1.168.377h-.345v1.967h-.717v-4.85h1.062ZM276.752 27.653h.451c.186 0 .955 0 .955-.728 0-.377-.159-.782-.955-.782h-.451v1.51Zm-.743-4.15h2.388v.673h-1.645v1.267h.478c.345 0 .822.054 1.194.404.265.242.451.62.451 1.051 0 .458-.186.916-.584 1.186-.345.242-.769.27-1.061.27h-1.221v-4.852ZM280.149 23.502l1.247 2.507 1.115-2.507h.743l-2.15 4.851h-.769l.663-1.455-1.725-3.396h.876ZM284.608 25.685h.319c.663 0 .955-.323.955-.754 0-.27-.132-.755-.955-.755h-.319v1.51Zm.319-2.183c.292 0 .716 0 1.061.243.398.27.584.728.584 1.186 0 .296-.053.727-.477 1.078-.372.323-.797.377-1.168.377h-.319v1.967h-.743v-4.85h1.062ZM287.607 23.502h2.389v.674h-1.645v4.177h-.744v-4.85ZM293.605 24.176h-1.91v1.186h1.857v.674h-1.857v1.617h1.91v.7h-2.627v-4.85h2.627v.673ZM219.634 2.401V29h.346V2.401h-.346ZM211.805 24.5V29h.345v-4.635a.536.536 0 0 0-.213.108l-.132.027Zm0-22.099v17.706c.132-.108.239-.189.345-.297V2.401h-.345Zm-8.971 21.721V29h.345v-4.716c-.106-.054-.239-.108-.345-.162Zm0-11.534v6.44c.106.163.239.324.345.459v-7.25c-.106.108-.239.216-.345.351Zm0-10.187v5.66c.106-.027.239-.054.345-.081V2.4h-.345Zm-7.83 0V29h.345V2.401h-.345Z" fill="#9E9E9E"/>
    <path d="M214.591 9.704c0 .135.213 1.105.266 2.156.079 1.213.079 2.695-.159 3.908-.239 1.509-.823 3.099-1.858 4.204-1.274 1.374-3.265 1.967-5.07 1.967-1.752 0-3.583-.566-4.857-1.86-1.141-1.158-1.566-2.721-1.566-4.365 0-.916.186-1.806.478-2.56.584-1.563 1.964-2.13 3.556-2.075.744.027 2.177.161 2.734.754.743.782.584 2.399.292 3.261-.053.135-.159.54-.663.593-.266.027-.903-.027-1.195-.108-.159-.08-.239-.296-.239-.485-.026-.404.213-.808.213-1.186 0-.161-.106-.296-.292-.35-.398-.135-1.433-.431-1.938.243-.186.27-.398 1.185-.318 1.832a2.326 2.326 0 0 0 1.008 1.698c.505.323 1.327.539 2.15.593.929.027 1.938-.135 2.522-.593 1.114-.863 1.327-1.886 1.459-3.288.266-2.237-.716-4.312-2.972-5.147-3.371-1.267-7.432-.485-8.839 3.26-1.22 3.235-.769 7.277 1.646 9.81 2.654 2.83 7.299 3.315 10.749 1.94 2.548-.997 4.141-2.83 5.043-5.416.531-1.429.717-2.992.743-4.528.027-.781-.026-1.482-.053-2.102a23.103 23.103 0 0 0-.239-1.751c-.079-.27-.291-.324-.398-.35l-1.592-.351c-.212-.027-.531 0-.611.296Z" fill="#FBC90B"/>
    <path d="M255.014 2.347v.998l1.248-1.348V1l-1.248 1.347ZM274.894 2.347v.998l1.247-1.348V1l-1.247 1.347ZM253.873 26.116v.997l1.247-1.32v-1.024l-1.247 1.347Z" fill="#9E9E9E"/>
  </g>
  <defs>
    <clipPath id="a">
      <path fill="#fff" transform="translate(195 1)" d="M0 0h99v28H0z"/>
    </clipPath>
  </defs>
</svg>
